<?xml version="1.0" encoding="UTF-8" standalone="no"?>
<!-- Created with Inkscape (http://www.inkscape.org/) -->

<svg
   xmlns:dc="http://purl.org/dc/elements/1.1/"
   xmlns:cc="http://creativecommons.org/ns#"
   xmlns:rdf="http://www.w3.org/1999/02/22-rdf-syntax-ns#"
   xmlns:svg="http://www.w3.org/2000/svg"
   xmlns="http://www.w3.org/2000/svg"
   xmlns:sodipodi="http://sodipodi.sourceforge.net/DTD/sodipodi-0.dtd"
   xmlns:inkscape="http://www.inkscape.org/namespaces/inkscape"
   width="209.5285mm"
   height="209.5285mm"
   viewBox="0 0 209.5285 209.5285"
   version="1.1"
   id="svg8"
   sodipodi:docname="rocstarlogofat_unsetfill.svg"
   inkscape:version="0.92.2 5c3e80d, 2017-08-06"
   style="enable-background:new"
   inkscape:export-filename="/home/roelof/work2/Projects/SPP1889/ROCSTAR/Outreach/rocstar_website/resources/images/logowork/rocstarlogo_sqr.png"
   inkscape:export-xdpi="120.01231"
   inkscape:export-ydpi="120.01231">
  <defs
     id="defs2" />
  <sodipodi:namedview
     id="base"
     pagecolor="#ffffff"
     bordercolor="#666666"
     borderopacity="1.0"
     inkscape:pageopacity="0.0"
     inkscape:pageshadow="2"
     inkscape:zoom="0.24748737"
     inkscape:cx="1690.4067"
     inkscape:cy="828.55166"
     inkscape:document-units="mm"
     inkscape:current-layer="layer2"
     showgrid="false"
     inkscape:object-paths="true"
     inkscape:window-width="1920"
     inkscape:window-height="1021"
     inkscape:window-x="1920"
     inkscape:window-y="0"
     inkscape:window-maximized="1"
     inkscape:snap-grids="false"
     fit-margin-top="0"
     fit-margin-left="0"
     fit-margin-right="0"
     fit-margin-bottom="0"
     inkscape:snap-global="false"
     showguides="false" />
  <metadata
     id="metadata5">
    <rdf:RDF>
      <cc:Work
         rdf:about="">
        <dc:format>image/svg+xml</dc:format>
        <dc:type
           rdf:resource="http://purl.org/dc/dcmitype/StillImage" />
        <dc:title></dc:title>
      </cc:Work>
    </rdf:RDF>
  </metadata>
  <g
     inkscape:label="name"
     inkscape:groupmode="layer"
     id="layer1"
     transform="translate(181.59588,-650.70837)"
     style="display:inline">
    <flowRoot
       xml:space="preserve"
       id="flowRoot6458"
       style="font-style:normal;font-weight:normal;font-size:40px;line-height:1.25;font-family:sans-serif;letter-spacing:0px;word-spacing:0px;fill:#000000;fill-opacity:1;stroke:none"><flowRegion
         id="flowRegion6460"><rect
           id="rect6462"
           width="1119.249"
           height="1460.6805"
           x="-1646.5487"
           y="1280.1035" /></flowRegion><flowPara
         id="flowPara6464" /></flowRoot>  </g>
  <g
     inkscape:groupmode="layer"
     id="layer2"
     inkscape:label="logo"
     transform="translate(-3.654733,40.691831)"
     style="display:inline">
    <path
       style="color:#000000;font-style:normal;font-variant:normal;font-weight:normal;font-stretch:normal;font-size:medium;line-height:normal;font-family:sans-serif;font-variant-ligatures:normal;font-variant-position:normal;font-variant-caps:normal;font-variant-numeric:normal;font-variant-alternates:normal;font-feature-settings:normal;text-indent:0;text-align:start;text-decoration:none;text-decoration-line:none;text-decoration-style:solid;text-decoration-color:#000000;letter-spacing:normal;word-spacing:normal;text-transform:none;writing-mode:lr-tb;direction:ltr;text-orientation:mixed;dominant-baseline:auto;baseline-shift:baseline;text-anchor:start;white-space:normal;shape-padding:0;clip-rule:nonzero;display:inline;overflow:visible;visibility:visible;opacity:1;isolation:auto;mix-blend-mode:normal;color-interpolation:sRGB;color-interpolation-filters:linearRGB;solid-color:#000000;solid-opacity:1;vector-effect:none;fill-opacity:1;fill-rule:nonzero;stroke:none;stroke-width:20;stroke-linecap:round;stroke-linejoin:miter;stroke-miterlimit:4;stroke-dasharray:none;stroke-dashoffset:0;stroke-opacity:1;color-rendering:auto;image-rendering:auto;shape-rendering:auto;text-rendering:auto;enable-background:new"
       d="M 29.064453,-8.8515625 C 26.493991,-8.697348 24.096537,-8.301914 21.947266,-7.75 13.350182,-5.5423441 7.5371094,-0.90625 7.5371094,-0.90625 A 10.001,10.001 0 1 0 19.994141,14.742188 c 0,0 2.504785,-1.98532 6.927734,-3.121094 4.422949,-1.135775 9.596096,-1.49338 16.572266,3.36914 11.835968,8.249898 24.385342,8.541641 32.982421,6.333985 8.59708,-2.207657 14.410157,-6.84375 14.410157,-6.84375 A 10.001,10.001 0 1 0 78.429688,-1.1660156 c 0,0 -2.504799,1.98336866 -6.927735,3.1191406 C 67.079018,3.0888969 61.907814,3.4465118 54.931641,-1.4160156 46.054662,-7.6034346 36.77584,-9.3142059 29.064453,-8.8515625 Z"
       id="path4893-3-6-8"
       inkscape:connector-curvature="0" />
    <path
       style="display:inline;opacity:1;fill-opacity:1;stroke:none;stroke-width:29.26753426;stroke-linecap:round;stroke-linejoin:bevel;stroke-miterlimit:4;stroke-dasharray:none;stroke-dashoffset:0;stroke-opacity:1;enable-background:new"
       d="M 120.087,-18.351332 A 17.242397,17.242397 0 0 0 103.10664,-0.86713403 V 114.16768 a 27.936859,27.936859 0 0 0 -10.6965,22.04104 27.936859,27.936859 0 0 0 27.96832,27.86548 27.936859,27.936859 0 0 0 27.90527,-27.92905 l -5.2e-4,-0.15916 A 27.936859,27.936859 0 0 0 137.58722,114.19197 V -0.86713403 A 17.242397,17.242397 0 0 0 120.087,-18.351332 Z m 0.14831,9.6231851 a 7.4526613,7.4526613 0 0 1 0.74259,0.02584 7.4526613,7.4526613 0 0 1 0.73794,0.100253 7.4526613,7.4526613 0 0 1 0.7245,0.173116 7.4526613,7.4526613 0 0 1 0.70384,0.2449457 7.4526613,7.4526613 0 0 1 0.67541,0.3136757 7.4526613,7.4526613 0 0 1 0.64079,0.379822 7.4526613,7.4526613 0 0 1 0.59996,0.4418327 7.4526613,7.4526613 0 0 1 0.55242,0.4991947 7.4526613,7.4526613 0 0 1 0.50023,0.5524197 7.4526613,7.4526613 0 0 1 0.44235,0.5994467 7.4526613,7.4526613 0 0 1 0.38034,0.6402697 7.4526613,7.4526613 0 0 1 0.31471,0.6754104 7.4526613,7.4526613 0 0 1 0.24546,0.7033157 7.4526613,7.4526613 0 0 1 0.17415,0.7245027 7.4526613,7.4526613 0 0 1 0.10129,0.7379388 7.4526613,7.4526613 0 0 1 0.0269,0.7446578 V 64.736614 a 7.4526613,7.4526613 0 0 1 -0.0129,0.607714 7.4526613,7.4526613 0 0 1 -0.0827,0.740523 7.4526613,7.4526613 0 0 1 -0.15658,0.728121 7.4526613,7.4526613 0 0 1 -0.22841,0.709001 7.4526613,7.4526613 0 0 1 -0.29818,0.682646 7.4526613,7.4526613 0 0 1 -0.36483,0.649573 7.4526613,7.4526613 0 0 1 -0.42737,0.610299 7.4526613,7.4526613 0 0 1 -0.48679,0.56379 7.4526613,7.4526613 0 0 1 -0.54002,0.513146 7.4526613,7.4526613 0 0 1 -0.58911,0.456303 7.4526613,7.4526613 0 0 1 -0.63148,0.394809 7.4526613,7.4526613 0 0 1 -0.66766,0.33021 7.4526613,7.4526613 0 0 1 -0.69764,0.262001 7.4526613,7.4526613 0 0 1 -0.71985,0.191204 7.4526613,7.4526613 0 0 1 -0.73587,0.117822 7.4526613,7.4526613 0 0 1 -0.74363,0.04392 7.4526613,7.4526613 0 0 1 -0.74414,-0.02997 7.4526613,7.4526613 0 0 1 -0.73742,-0.104902 7.4526613,7.4526613 0 0 1 -0.72347,-0.177768 7.4526613,7.4526613 0 0 1 -0.70228,-0.248563 7.4526613,7.4526613 0 0 1 -0.67386,-0.31781 7.4526613,7.4526613 0 0 1 -0.63872,-0.383955 7.4526613,7.4526613 0 0 1 -0.59686,-0.444934 7.4526613,7.4526613 0 0 1 -0.54984,-0.502811 7.4526613,7.4526613 0 0 1 -0.49661,-0.555522 7.4526613,7.4526613 0 0 1 -0.43925,-0.601515 7.4526613,7.4526613 0 0 1 -0.37621,-0.642855 7.4526613,7.4526613 0 0 1 -0.31057,-0.677479 7.4526613,7.4526613 0 0 1 -0.24133,-0.70435 7.4526613,7.4526613 0 0 1 -0.17002,-0.725535 7.4526613,7.4526613 0 0 1 -0.0966,-0.738457 7.4526613,7.4526613 0 0 1 -0.0222,-0.744657 V -1.1715076 a 7.4526613,7.4526613 0 0 1 0.0109,-0.5203818 7.4526613,7.4526613 0 0 1 0.0785,-0.7410391 7.4526613,7.4526613 0 0 1 0.15193,-0.7291544 7.4526613,7.4526613 0 0 1 0.22427,-0.7100337 7.4526613,7.4526613 0 0 1 0.29404,-0.6847117 7.4526613,7.4526613 0 0 1 0.36122,-0.6516397 7.4526613,7.4526613 0 0 1 0.42426,-0.6123654 7.4526613,7.4526613 0 0 1 0.48318,-0.5668887 7.4526613,7.4526613 0 0 1 0.53743,-0.5162477 7.4526613,7.4526613 0 0 1 0.58601,-0.4594027 7.4526613,7.4526613 0 0 1 0.62891,-0.398942 7.4526613,7.4526613 0 0 1 0.6661,-0.3343467 7.4526613,7.4526613 0 0 1 0.69557,-0.265617 7.4526613,7.4526613 0 0 1 0.71934,-0.1953357 7.4526613,7.4526613 0 0 1 0.73483,-0.122474 7.4526613,7.4526613 0 0 1 0.74311,-0.04806 z"
       id="path1409"
       inkscape:connector-curvature="0" />
    <path
       style="color:#000000;font-style:normal;font-variant:normal;font-weight:normal;font-stretch:normal;font-size:medium;line-height:normal;font-family:sans-serif;font-variant-ligatures:normal;font-variant-position:normal;font-variant-caps:normal;font-variant-numeric:normal;font-variant-alternates:normal;font-feature-settings:normal;text-indent:0;text-align:start;text-decoration:none;text-decoration-line:none;text-decoration-style:solid;text-decoration-color:#000000;letter-spacing:normal;word-spacing:normal;text-transform:none;writing-mode:lr-tb;direction:ltr;text-orientation:mixed;dominant-baseline:auto;baseline-shift:baseline;text-anchor:start;white-space:normal;shape-padding:0;clip-rule:nonzero;display:inline;overflow:visible;visibility:visible;opacity:1;isolation:auto;mix-blend-mode:normal;color-interpolation:sRGB;color-interpolation-filters:linearRGB;solid-color:#000000;solid-opacity:1;vector-effect:none;fill-opacity:1;fill-rule:nonzero;stroke:none;stroke-width:20;stroke-linecap:round;stroke-linejoin:miter;stroke-miterlimit:4;stroke-dasharray:none;stroke-dashoffset:0;stroke-opacity:1;color-rendering:auto;image-rendering:auto;shape-rendering:auto;text-rendering:auto;enable-background:new"
       d="m 29.064453,92.074219 c -2.570465,0.154214 -4.967915,0.549646 -7.117187,1.101562 -8.597092,2.207666 -14.4101566,6.845699 -14.4101566,6.845699 a 10.001,10.001 0 1 0 12.4570316,15.64649 c 0,0 2.504792,-1.98532 6.927734,-3.12109 4.422942,-1.13578 9.596095,-1.49145 16.572266,3.37109 11.835969,8.24989 24.385342,8.54164 32.982421,6.33398 8.59708,-2.20765 14.410157,-6.8457 14.410157,-6.8457 A 10.001,10.001 0 1 0 78.429688,99.759766 c 0,0 -2.504799,1.985324 -6.927735,3.121094 -4.422936,1.13577 -9.594139,1.49143 -16.570312,-3.371094 C 46.054662,93.32232 36.775849,91.611575 29.064453,92.074219 Z"
       id="path4893-3-6-8-9"
       inkscape:connector-curvature="0" />
    <path
       style="color:#000000;font-style:normal;font-variant:normal;font-weight:normal;font-stretch:normal;font-size:medium;line-height:normal;font-family:sans-serif;font-variant-ligatures:normal;font-variant-position:normal;font-variant-caps:normal;font-variant-numeric:normal;font-variant-alternates:normal;font-feature-settings:normal;text-indent:0;text-align:start;text-decoration:none;text-decoration-line:none;text-decoration-style:solid;text-decoration-color:#000000;letter-spacing:normal;word-spacing:normal;text-transform:none;writing-mode:lr-tb;direction:ltr;text-orientation:mixed;dominant-baseline:auto;baseline-shift:baseline;text-anchor:start;white-space:normal;shape-padding:0;clip-rule:nonzero;display:inline;overflow:visible;visibility:visible;opacity:1;isolation:auto;mix-blend-mode:normal;color-interpolation:sRGB;color-interpolation-filters:linearRGB;solid-color:#000000;solid-opacity:1;vector-effect:none;fill-opacity:1;fill-rule:nonzero;stroke:none;stroke-width:20;stroke-linecap:round;stroke-linejoin:miter;stroke-miterlimit:4;stroke-dasharray:none;stroke-dashoffset:0;stroke-opacity:1;color-rendering:auto;image-rendering:auto;shape-rendering:auto;text-rendering:auto;enable-background:new"
       d="m 29.064453,41.611328 c -2.570463,0.154214 -4.967916,0.549648 -7.117187,1.101563 -8.597087,2.207658 -14.4101566,6.845703 -14.4101566,6.845703 A 10.001,10.001 0 1 0 19.994141,65.205078 c 0,0 2.504788,-1.985319 6.927734,-3.121094 4.422946,-1.135774 9.596095,-1.491434 16.572266,3.371094 11.835969,8.249895 24.385342,8.541642 32.982421,6.333984 8.59708,-2.207657 14.410157,-6.845703 14.410157,-6.845703 A 10.001,10.001 0 1 0 78.429688,49.296875 c 0,0 -2.504799,1.983368 -6.927735,3.119141 -4.422936,1.135772 -9.594139,1.493384 -16.570312,-3.369141 -8.876979,-6.187429 -18.155798,-7.89819 -25.867188,-7.435547 z"
       id="path4893-3-6-8-9-1"
       inkscape:connector-curvature="0" />
    <path
       style="font-style:normal;font-variant:normal;font-weight:600;font-stretch:normal;font-size:666.66668701px;line-height:1.25;font-family:'Noto Sans';-inkscape-font-specification:'Noto Sans Semi-Bold';letter-spacing:0px;word-spacing:0px;display:inline;fill-opacity:1;stroke:none;stroke-width:0.26458332;enable-background:new"
       d="M 148.12158,-2.5170915 V 16.356169 h 2.97242 c 9.28982,0 16.11036,1.47026 20.46129,4.41007 4.46851,2.82223 6.70295,7.643339 6.70295,14.46371 0,6.585191 -2.05804,11.582699 -6.17378,14.992879 -4.11575,3.292602 -10.87715,4.939231 -20.28456,4.939231 h -3.67832 v 18.520842 h 9.49916 l 30.1625,49.741639 h 25.4 L 177.02317,68.03828 c 4.11574,-1.76389 7.9963,-4.056941 11.64167,-6.879162 3.76296,-2.939809 6.76157,-6.585349 8.99583,-10.93629 2.35185,-4.350919 3.52795,-9.58347 3.52795,-15.69825 0,-12.464839 -3.99832,-21.754811 -11.99461,-27.8696352 -7.8787,-6.11482677 -20.10816,-9.1720343 -36.68872,-9.1720343 z"
       id="path979"
       inkscape:connector-curvature="0" />
  </g>
</svg>
