<?xml version="1.0" encoding="UTF-8" standalone="no"?>
<!-- Created with Inkscape (http://www.inkscape.org/) -->

<svg
   xmlns:dc="http://purl.org/dc/elements/1.1/"
   xmlns:cc="http://creativecommons.org/ns#"
   xmlns:rdf="http://www.w3.org/1999/02/22-rdf-syntax-ns#"
   xmlns:svg="http://www.w3.org/2000/svg"
   xmlns="http://www.w3.org/2000/svg"
   xmlns:sodipodi="http://sodipodi.sourceforge.net/DTD/sodipodi-0.dtd"
   xmlns:inkscape="http://www.inkscape.org/namespaces/inkscape"
   width="206.10564mm"
   height="206.10564mm"
   viewBox="0 0 206.10563 206.10563"
   version="1.1"
   id="svg8"
   sodipodi:docname="rocstarlogo_orange.svg"
   inkscape:version="0.92.2 5c3e80d, 2017-08-06"
   style="enable-background:new"
   inkscape:export-filename="/home/roelof/work2/Projects/SPP1889/ROCSTAR/Outreach/rocstar_website/resources/images/logowork/rocstarlogo_sqr.png"
   inkscape:export-xdpi="120.01231"
   inkscape:export-ydpi="120.01231">
  <defs
     id="defs2" />
  <sodipodi:namedview
     id="base"
     pagecolor="#ffffff"
     bordercolor="#666666"
     borderopacity="1.0"
     inkscape:pageopacity="0.0"
     inkscape:pageshadow="2"
     inkscape:zoom="0.24748737"
     inkscape:cx="1682.4067"
     inkscape:cy="782.55186"
     inkscape:document-units="mm"
     inkscape:current-layer="layer2"
     showgrid="false"
     inkscape:object-paths="true"
     inkscape:window-width="1920"
     inkscape:window-height="1021"
     inkscape:window-x="1920"
     inkscape:window-y="0"
     inkscape:window-maximized="1"
     inkscape:snap-grids="false"
     fit-margin-top="0"
     fit-margin-left="0"
     fit-margin-right="0"
     fit-margin-bottom="0"
     inkscape:snap-global="false"
     showguides="false" />
  <metadata
     id="metadata5">
    <rdf:RDF>
      <cc:Work
         rdf:about="">
        <dc:format>image/svg+xml</dc:format>
        <dc:type
           rdf:resource="http://purl.org/dc/dcmitype/StillImage" />
        <dc:title></dc:title>
      </cc:Work>
    </rdf:RDF>
  </metadata>
  <g
     inkscape:label="name"
     inkscape:groupmode="layer"
     id="layer1"
     transform="translate(179.47923,-641.96046)"
     style="display:inline">
    <flowRoot
       xml:space="preserve"
       id="flowRoot6458"
       style="font-style:normal;font-weight:normal;font-size:40px;line-height:1.25;font-family:sans-serif;letter-spacing:0px;word-spacing:0px;fill:#000000;fill-opacity:1;stroke:none"><flowRegion
         id="flowRegion6460"><rect
           id="rect6462"
           width="1119.249"
           height="1460.6805"
           x="-1646.5487"
           y="1280.1035" /></flowRegion><flowPara
         id="flowPara6464" /></flowRoot>  </g>
  <g
     inkscape:groupmode="layer"
     id="layer2"
     inkscape:label="logo"
     transform="translate(-5.7713876,49.439741)"
     style="display:inline">
    <path
       style="color:#000000;font-style:normal;font-variant:normal;font-weight:normal;font-stretch:normal;font-size:medium;line-height:normal;font-family:sans-serif;font-variant-ligatures:normal;font-variant-position:normal;font-variant-caps:normal;font-variant-numeric:normal;font-variant-alternates:normal;font-feature-settings:normal;text-indent:0;text-align:start;text-decoration:none;text-decoration-line:none;text-decoration-style:solid;text-decoration-color:#000000;letter-spacing:normal;word-spacing:normal;text-transform:none;writing-mode:lr-tb;direction:ltr;text-orientation:mixed;dominant-baseline:auto;baseline-shift:baseline;text-anchor:start;white-space:normal;shape-padding:0;clip-rule:nonzero;display:inline;overflow:visible;visibility:visible;opacity:1;isolation:auto;mix-blend-mode:normal;color-interpolation:sRGB;color-interpolation-filters:linearRGB;solid-color:#000000;solid-opacity:1;vector-effect:none;fill:#f37726;fill-opacity:1;fill-rule:nonzero;stroke:none;stroke-width:16.5;stroke-linecap:round;stroke-linejoin:miter;stroke-miterlimit:4;stroke-dasharray:none;stroke-dashoffset:0;stroke-opacity:1;filter:url(#filter1595);color-rendering:auto;image-rendering:auto;shape-rendering:auto;text-rendering:auto;enable-background:new"
       d="M 32.942875,-18.925449 C 19.355166,-18.12806 9.8374053,-12.444982 9.8374053,-12.444982 A 8.2508251,8.2508251 0 1 0 18.466313,1.6175157 c 0,0 15.58225,-9.9639551 34.345704,0.115234 26.41542,14.1896063 50.781263,-0.357421 50.781263,-0.357421 A 8.2508251,8.2508251 0 1 0 94.964362,-12.68717 c 0,0 -15.580291,9.9639564 -34.343753,-0.115234 -9.905783,-5.321102 -19.525107,-6.601479 -27.677734,-6.123045 z"
       id="path4893-3-6-8"
       inkscape:connector-curvature="0" />
    <path
       style="display:inline;opacity:1;fill:#f37726;fill-opacity:1;stroke:none;stroke-width:20.15999985;stroke-linecap:round;stroke-linejoin:bevel;stroke-miterlimit:4;stroke-dasharray:none;stroke-dashoffset:0;stroke-opacity:1;filter:url(#filter1595);enable-background:new"
       id="path1409"
       sodipodi:type="arc"
       sodipodi:cx="127.99035"
       sodipodi:cy="119.43083"
       sodipodi:rx="19.243406"
       sodipodi:ry="19.243406"
       sodipodi:start="0.00028951522"
       sodipodi:end="6.2777748"
       sodipodi:open="true"
       d="m 147.23375,119.4364 a 19.243406,19.243406 0 0 1 -19.22155,19.23783 19.243406,19.243406 0 0 1 -19.26519,-19.19413 19.243406,19.243406 0 0 1 19.16664,-19.29252 19.243406,19.243406 0 0 1 19.31982,19.13914" />
    <path
       style="color:#000000;font-style:normal;font-variant:normal;font-weight:normal;font-stretch:normal;font-size:medium;line-height:normal;font-family:sans-serif;font-variant-ligatures:normal;font-variant-position:normal;font-variant-caps:normal;font-variant-numeric:normal;font-variant-alternates:normal;font-feature-settings:normal;text-indent:0;text-align:start;text-decoration:none;text-decoration-line:none;text-decoration-style:solid;text-decoration-color:#000000;letter-spacing:normal;word-spacing:normal;text-transform:none;writing-mode:lr-tb;direction:ltr;text-orientation:mixed;dominant-baseline:auto;baseline-shift:baseline;text-anchor:start;white-space:normal;shape-padding:0;clip-rule:nonzero;display:inline;overflow:visible;visibility:visible;opacity:1;isolation:auto;mix-blend-mode:normal;color-interpolation:sRGB;color-interpolation-filters:linearRGB;solid-color:#000000;solid-opacity:1;vector-effect:none;fill:#f37726;fill-opacity:1;fill-rule:nonzero;stroke:none;stroke-width:16.5;stroke-linecap:round;stroke-linejoin:miter;stroke-miterlimit:4;stroke-dasharray:none;stroke-dashoffset:0;stroke-opacity:1;filter:url(#filter1595);color-rendering:auto;image-rendering:auto;shape-rendering:auto;text-rendering:auto;enable-background:new"
       d="m 32.942875,86.215147 c -13.587709,0.797387 -23.1054697,6.48046 -23.1054697,6.48047 a 8.2508251,8.2508251 0 1 0 8.6289077,14.062503 c 0,0 15.58225,-9.963963 34.345704,0.11523 26.415418,14.18961 50.781263,-0.35742 50.781263,-0.35742 A 8.2508251,8.2508251 0 1 0 94.964362,92.453427 c 0,0 -15.580291,9.963963 -34.343753,-0.11524 -9.905783,-5.321103 -19.525107,-6.60148 -27.677734,-6.12304 z"
       id="path4893-3-6-8-6"
       inkscape:connector-curvature="0" />
    <path
       style="color:#000000;font-style:normal;font-variant:normal;font-weight:normal;font-stretch:normal;font-size:medium;line-height:normal;font-family:sans-serif;font-variant-ligatures:normal;font-variant-position:normal;font-variant-caps:normal;font-variant-numeric:normal;font-variant-alternates:normal;font-feature-settings:normal;text-indent:0;text-align:start;text-decoration:none;text-decoration-line:none;text-decoration-style:solid;text-decoration-color:#000000;letter-spacing:normal;word-spacing:normal;text-transform:none;writing-mode:lr-tb;direction:ltr;text-orientation:mixed;dominant-baseline:auto;baseline-shift:baseline;text-anchor:start;white-space:normal;shape-padding:0;clip-rule:nonzero;display:inline;overflow:visible;visibility:visible;opacity:1;isolation:auto;mix-blend-mode:normal;color-interpolation:sRGB;color-interpolation-filters:linearRGB;solid-color:#000000;solid-opacity:1;vector-effect:none;fill:#f37726;fill-opacity:1;fill-rule:nonzero;stroke:none;stroke-width:16.5;stroke-linecap:round;stroke-linejoin:miter;stroke-miterlimit:4;stroke-dasharray:none;stroke-dashoffset:0;stroke-opacity:1;filter:url(#filter1595);color-rendering:auto;image-rendering:auto;shape-rendering:auto;text-rendering:auto;enable-background:new"
       d="M 33.966312,33.64486 C 20.378604,34.442251 10.860843,40.125329 10.860843,40.125329 A 8.2508251,8.2508251 0 1 0 19.48975,54.18783 c 0,0 15.582251,-9.963955 34.345704,0.115234 26.415415,14.189609 50.781256,-0.357421 50.781256,-0.357421 A 8.2508251,8.2508251 0 1 0 95.987799,39.883142 c 0,0 -15.582254,9.963957 -34.345705,-0.115234 C 51.736311,34.446804 42.118937,33.166427 33.966312,33.64486 Z"
       id="path4893-3-6-8-6-0"
       inkscape:connector-curvature="0" />
    <path
       style="color:#000000;font-style:normal;font-variant:normal;font-weight:normal;font-stretch:normal;font-size:medium;line-height:normal;font-family:sans-serif;font-variant-ligatures:normal;font-variant-position:normal;font-variant-caps:normal;font-variant-numeric:normal;font-variant-alternates:normal;font-feature-settings:normal;text-indent:0;text-align:start;text-decoration:none;text-decoration-line:none;text-decoration-style:solid;text-decoration-color:#000000;letter-spacing:normal;word-spacing:normal;text-transform:none;writing-mode:lr-tb;direction:ltr;text-orientation:mixed;dominant-baseline:auto;baseline-shift:baseline;text-anchor:start;white-space:normal;shape-padding:0;clip-rule:nonzero;display:inline;overflow:visible;visibility:visible;opacity:1;isolation:auto;mix-blend-mode:normal;color-interpolation:sRGB;color-interpolation-filters:linearRGB;solid-color:#000000;solid-opacity:1;vector-effect:none;fill:#f37726;fill-opacity:1;fill-rule:nonzero;stroke:none;stroke-width:18.8986969;stroke-linecap:round;stroke-linejoin:miter;stroke-miterlimit:4;stroke-dasharray:none;stroke-dashoffset:0;stroke-opacity:1;filter:url(#filter1595);color-rendering:auto;image-rendering:auto;shape-rendering:auto;text-rendering:auto;enable-background:new"
       d="m 127.73855,-28.725011 a 10.001,8.9299121 0 0 0 -9.8361,9.065061 l 0.17571,120.55745 a 10.001,8.9299121 0 1 0 20.00033,-0.0245 l -0.17622,-120.5556 a 10.001,8.9299121 0 0 0 -10.16372,-9.042441 z m -0.84129,3.349921 h 2.18487 c 0.41174,0 0.81323,0.0444 1.20097,0.12873 0.38774,0.0843 0.76186,0.20887 1.11776,0.36914 0.35589,0.16027 0.69355,0.35633 1.00976,0.58416 0.31621,0.22782 0.61087,0.48727 0.87952,0.77425 0.26868,0.28699 0.51176,0.60169 0.72503,0.93946 0.21327,0.33777 0.3967,0.69863 0.54674,1.0788 0.15003,0.38017 0.26626,0.7795 0.3452,1.19369 0.0789,0.41419 0.12041,0.84339 0.12041,1.283209 V 50.28622 c 0,0.439809 -0.0415,0.868569 -0.12041,1.282748 -0.0789,0.414181 -0.19517,0.813522 -0.3452,1.193691 -0.15004,0.38018 -0.33347,0.741498 -0.54674,1.079262 -0.21327,0.337778 -0.45635,0.65201 -0.72503,0.938996 -0.26865,0.286991 -0.56331,0.546441 -0.87952,0.774263 -0.31621,0.227809 -0.65387,0.424347 -1.00976,0.584611 -0.3559,0.160276 -0.73002,0.284347 -1.11776,0.368667 -0.38774,0.0843 -0.78923,0.128741 -1.20097,0.128741 h -2.18487 c -0.41174,0 -0.81374,-0.0444 -1.20149,-0.128741 -0.38773,-0.0843 -0.76133,-0.208391 -1.11724,-0.368667 -0.35589,-0.160264 -0.69406,-0.356802 -1.01026,-0.584611 -0.31621,-0.227822 -0.61036,-0.487272 -0.87902,-0.774263 -0.26868,-0.286986 -0.51175,-0.601218 -0.72502,-0.938996 -0.21328,-0.337764 -0.39671,-0.699082 -0.54674,-1.079262 -0.15003,-0.380169 -0.26678,-0.77951 -0.34571,-1.193691 -0.0789,-0.414179 -0.12042,-0.842939 -0.12042,-1.282748 v -69.309871 c 0,-0.439819 0.0415,-0.869019 0.12042,-1.283209 0.0789,-0.41419 0.19568,-0.81352 0.34571,-1.19369 0.15003,-0.38017 0.33346,-0.74103 0.54674,-1.0788 0.21327,-0.33777 0.45634,-0.65247 0.72502,-0.93946 0.26866,-0.28698 0.56281,-0.54643 0.87902,-0.77425 0.3162,-0.22783 0.65437,-0.42389 1.01026,-0.58416 0.35591,-0.16027 0.72951,-0.28481 1.11724,-0.36914 0.38775,-0.0843 0.78975,-0.12873 1.20149,-0.12873 z"
       id="path4893-3-6-8-4"
       inkscape:connector-curvature="0" />
    <path
       style="font-style:normal;font-variant:normal;font-weight:normal;font-stretch:normal;font-size:medium;line-height:1.25;font-family:'Noto Sans';-inkscape-font-specification:'Noto Sans';letter-spacing:0px;word-spacing:0px;display:inline;fill:#f37726;fill-opacity:1;stroke:none;stroke-width:0.26458332;filter:url(#filter1595);enable-background:new"
       d="m 145.01598,-14.839151 v 13.7583364 h 10.76937 c 10.34815,0 17.9915,1.76389303 22.93039,5.2916623 4.93888,3.410212 7.40833,9.2310213 7.40833,17.4625003 0,7.878702 -2.35169,13.875922 -7.05539,17.991672 -4.7037,3.998129 -12.17118,5.997048 -22.40173,5.997048 H 145.01598 V 59.06745 h 17.82475 l 30.51545,52.03504 h 18.52084 L 177.30445,54.657899 c 4.23333,-1.4111 8.23166,-3.469151 11.99462,-6.17378 3.88056,-2.704621 7.05556,-6.291021 9.525,-10.759551 2.46944,-4.468508 3.70416,-10.054338 3.70416,-16.757121 0,-11.994427 -3.76279,-20.9311186 -11.28871,-26.8107593 -7.40834,-5.9972277 -18.93275,-8.9958387 -34.57257,-8.9958387 z"
       id="path1679"
       inkscape:connector-curvature="0"
       inkscape:export-xdpi="96"
       inkscape:export-ydpi="96" />
  </g>
</svg>
