<?xml version="1.0" encoding="UTF-8" standalone="no"?>
<!-- Created with Inkscape (http://www.inkscape.org/) -->

<svg
   xmlns:dc="http://purl.org/dc/elements/1.1/"
   xmlns:cc="http://creativecommons.org/ns#"
   xmlns:rdf="http://www.w3.org/1999/02/22-rdf-syntax-ns#"
   xmlns:svg="http://www.w3.org/2000/svg"
   xmlns="http://www.w3.org/2000/svg"
   xmlns:sodipodi="http://sodipodi.sourceforge.net/DTD/sodipodi-0.dtd"
   xmlns:inkscape="http://www.inkscape.org/namespaces/inkscape"
   width="210mm"
   height="210mm"
   viewBox="0 0 210 210"
   version="1.1"
   id="svg8"
   sodipodi:docname="rocstarlogo_silver.svg"
   inkscape:version="0.92.2 5c3e80d, 2017-08-06"
   style="enable-background:new"
   inkscape:export-filename="/home/roelof/wolk7/Graphics/ROCSTAR/rocstarlogov2.png"
   inkscape:export-xdpi="96"
   inkscape:export-ydpi="96">
  <defs
     id="defs2" />
  <sodipodi:namedview
     id="base"
     pagecolor="#ffffff"
     bordercolor="#666666"
     borderopacity="1.0"
     inkscape:pageopacity="0.0"
     inkscape:pageshadow="2"
     inkscape:zoom="0.24748737"
     inkscape:cx="1834.517"
     inkscape:cy="872.55197"
     inkscape:document-units="mm"
     inkscape:current-layer="layer1"
     showgrid="false"
     inkscape:object-paths="true"
     inkscape:window-width="1920"
     inkscape:window-height="1015"
     inkscape:window-x="0"
     inkscape:window-y="0"
     inkscape:window-maximized="1"
     inkscape:snap-grids="false"
     fit-margin-top="0"
     fit-margin-left="0"
     fit-margin-right="0"
     fit-margin-bottom="0"
     inkscape:snap-global="false"
     showguides="false" />
  <metadata
     id="metadata5">
    <rdf:RDF>
      <cc:Work
         rdf:about="">
        <dc:format>image/svg+xml</dc:format>
        <dc:type
           rdf:resource="http://purl.org/dc/dcmitype/StillImage" />
        <dc:title></dc:title>
      </cc:Work>
    </rdf:RDF>
  </metadata>
  <g
     inkscape:label="name"
     inkscape:groupmode="layer"
     id="layer1"
     transform="translate(181.59588,-661.87862)"
     style="display:inline">
    <flowRoot
       xml:space="preserve"
       id="flowRoot6458"
       style="font-style:normal;font-weight:normal;font-size:40px;line-height:1.25;font-family:sans-serif;letter-spacing:0px;word-spacing:0px;fill:#000000;fill-opacity:1;stroke:none"><flowRegion
         id="flowRegion6460"><rect
           id="rect6462"
           width="1119.249"
           height="1460.6805"
           x="-1646.5487"
           y="1280.1035" /></flowRegion><flowPara
         id="flowPara6464" /></flowRoot>  </g>
  <g
     inkscape:groupmode="layer"
     id="layer2"
     inkscape:label="logo"
     transform="translate(-3.654733,29.521585)"
     style="display:inline">
    <path
       style="display:inline;fill:none;stroke:#999999;stroke-width:20;stroke-linecap:round;stroke-linejoin:miter;stroke-miterlimit:4;stroke-dasharray:none;stroke-opacity:1;enable-background:new"
       d="m 13.766377,11.680357 c 0,0 16.633995,-13.2430693 35.446136,-0.130655 18.812142,13.11242 35.446101,-0.130644 35.446101,-0.130644 v 0"
       id="path4893-3-6-8"
       inkscape:connector-curvature="0"
       inkscape:export-xdpi="96"
       inkscape:export-ydpi="96"
       sodipodi:nodetypes="czcc" />
    <path
       style="display:inline;opacity:1;fill:#999999;fill-opacity:1;stroke:none;stroke-width:29.26753426;stroke-linecap:round;stroke-linejoin:bevel;stroke-miterlimit:4;stroke-dasharray:none;stroke-dashoffset:0;stroke-opacity:1;enable-background:new"
       d="M 120.087,-13.588837 A 17.242397,17.242397 0 0 0 103.10664,3.8953656 V 118.93013 a 27.936859,27.936859 0 0 0 -10.6965,22.04104 27.936859,27.936859 0 0 0 27.96832,27.86548 27.936859,27.936859 0 0 0 27.90527,-27.92905 l -5.2e-4,-0.15916 A 27.936859,27.936859 0 0 0 137.58722,118.95442 V 3.8953656 A 17.242397,17.242397 0 0 0 120.087,-13.588837 Z m 0.14831,9.623187 a 7.4526613,7.4526613 0 0 1 0.74259,0.025838 7.4526613,7.4526613 0 0 1 0.73794,0.1002522 7.4526613,7.4526613 0 0 1 0.7245,0.173116 7.4526613,7.4526613 0 0 1 0.70384,0.2449463 7.4526613,7.4526613 0 0 1 0.67541,0.313676 7.4526613,7.4526613 0 0 1 0.64079,0.3798218 7.4526613,7.4526613 0 0 1 0.59996,0.4418335 7.4526613,7.4526613 0 0 1 0.55242,0.4991944 7.4526613,7.4526613 0 0 1 0.50023,0.5524206 7.4526613,7.4526613 0 0 1 0.44235,0.59944667 7.4526613,7.4526613 0 0 1 0.38034,0.64027027 7.4526613,7.4526613 0 0 1 0.31471,0.67541069 7.4526613,7.4526613 0 0 1 0.24546,0.70331567 7.4526613,7.4526613 0 0 1 0.17415,0.7245034 7.4526613,7.4526613 0 0 1 0.10129,0.7379387 7.4526613,7.4526613 0 0 1 0.0269,0.7446577 V 69.499109 a 7.4526613,7.4526613 0 0 1 -0.0129,0.607714 7.4526613,7.4526613 0 0 1 -0.0827,0.740523 7.4526613,7.4526613 0 0 1 -0.15658,0.728121 7.4526613,7.4526613 0 0 1 -0.22841,0.709001 7.4526613,7.4526613 0 0 1 -0.29818,0.682646 7.4526613,7.4526613 0 0 1 -0.36483,0.649573 7.4526613,7.4526613 0 0 1 -0.42737,0.610299 7.4526613,7.4526613 0 0 1 -0.48679,0.56379 7.4526613,7.4526613 0 0 1 -0.54002,0.513146 7.4526613,7.4526613 0 0 1 -0.58911,0.456303 7.4526613,7.4526613 0 0 1 -0.63148,0.394809 7.4526613,7.4526613 0 0 1 -0.66766,0.33021 7.4526613,7.4526613 0 0 1 -0.69764,0.262001 7.4526613,7.4526613 0 0 1 -0.71985,0.191204 7.4526613,7.4526613 0 0 1 -0.73587,0.117822 7.4526613,7.4526613 0 0 1 -0.74363,0.04392 7.4526613,7.4526613 0 0 1 -0.74414,-0.02997 7.4526613,7.4526613 0 0 1 -0.73742,-0.104902 7.4526613,7.4526613 0 0 1 -0.72347,-0.177768 7.4526613,7.4526613 0 0 1 -0.70228,-0.248563 7.4526613,7.4526613 0 0 1 -0.67386,-0.31781 7.4526613,7.4526613 0 0 1 -0.63872,-0.383955 7.4526613,7.4526613 0 0 1 -0.59686,-0.444934 7.4526613,7.4526613 0 0 1 -0.54984,-0.502811 7.4526613,7.4526613 0 0 1 -0.49661,-0.555522 7.4526613,7.4526613 0 0 1 -0.43925,-0.601515 7.4526613,7.4526613 0 0 1 -0.37621,-0.642855 7.4526613,7.4526613 0 0 1 -0.31057,-0.677479 7.4526613,7.4526613 0 0 1 -0.24133,-0.70435 7.4526613,7.4526613 0 0 1 -0.17002,-0.725535 7.4526613,7.4526613 0 0 1 -0.0966,-0.738457 7.4526613,7.4526613 0 0 1 -0.0222,-0.744657 V 3.5909919 a 7.4526613,7.4526613 0 0 1 0.0109,-0.5203817 7.4526613,7.4526613 0 0 1 0.0785,-0.7410397 7.4526613,7.4526613 0 0 1 0.15193,-0.7291537 7.4526613,7.4526613 0 0 1 0.22427,-0.71003437 7.4526613,7.4526613 0 0 1 0.29404,-0.68471162 7.4526613,7.4526613 0 0 1 0.36122,-0.65163967 7.4526613,7.4526613 0 0 1 0.42426,-0.61236574 7.4526613,7.4526613 0 0 1 0.48318,-0.5668897 7.4526613,7.4526613 0 0 1 0.53743,-0.5162478 7.4526613,7.4526613 0 0 1 0.58601,-0.4594035 7.4526613,7.4526613 0 0 1 0.62891,-0.398942 7.4526613,7.4526613 0 0 1 0.6661,-0.3343463 7.4526613,7.4526613 0 0 1 0.69557,-0.2656171 7.4526613,7.4526613 0 0 1 0.71934,-0.1953368 7.4526613,7.4526613 0 0 1 0.73483,-0.1224733 7.4526613,7.4526613 0 0 1 0.74311,-0.048059 z"
       id="path1409"
       inkscape:connector-curvature="0" />
    <path
       style="display:inline;fill:none;stroke:#999999;stroke-width:20;stroke-linecap:round;stroke-linejoin:miter;stroke-miterlimit:4;stroke-dasharray:none;stroke-opacity:1;enable-background:new"
       d="m 13.766375,112.60692 c 0,0 16.633995,-13.243074 35.446137,-0.13065 18.812142,13.11242 35.446102,-0.13065 35.446102,-0.13065 v 0"
       id="path4893-3-6-8-9"
       inkscape:connector-curvature="0"
       inkscape:export-xdpi="96"
       inkscape:export-ydpi="96"
       sodipodi:nodetypes="czcc" />
    <path
       style="display:inline;fill:none;stroke:#999999;stroke-width:20;stroke-linecap:round;stroke-linejoin:miter;stroke-miterlimit:4;stroke-dasharray:none;stroke-opacity:1;enable-background:new"
       d="m 13.766375,62.143666 c 0,0 16.633995,-13.243083 35.446137,-0.13065 18.812142,13.11242 35.446102,-0.13065 35.446102,-0.13065 v 0"
       id="path4893-3-6-8-9-1"
       inkscape:connector-curvature="0"
       inkscape:export-xdpi="96"
       inkscape:export-ydpi="96"
       sodipodi:nodetypes="czcc" />
    <path
       style="font-style:normal;font-variant:normal;font-weight:600;font-stretch:normal;font-size:666.66668701px;line-height:1.25;font-family:'Noto Sans';-inkscape-font-specification:'Noto Sans Semi-Bold';letter-spacing:0px;word-spacing:0px;display:inline;fill:#999999;fill-opacity:1;stroke:none;stroke-width:0.26458332;enable-background:new"
       d="M 148.12158,2.2454075 V 21.118664 h 2.97242 c 9.28982,0 16.11036,1.47026 20.46129,4.41007 4.46851,2.82223 6.70295,7.643339 6.70295,14.46371 0,6.585191 -2.05804,11.582699 -6.17378,14.992879 -4.11575,3.292602 -10.87715,4.939231 -20.28456,4.939231 h -3.67832 v 18.520842 h 9.49916 l 30.1625,49.741594 h 25.4 L 177.02317,72.800775 c 4.11574,-1.76389 7.9963,-4.056941 11.64167,-6.879162 3.76296,-2.939809 6.76157,-6.585349 8.99583,-10.93629 2.35185,-4.350919 3.52795,-9.58347 3.52795,-15.69825 0,-12.464839 -3.99832,-21.754809 -11.99461,-27.86963 -7.8787,-6.1148273 -20.10816,-9.1720355 -36.68872,-9.1720355 z"
       id="path979"
       inkscape:connector-curvature="0" />
  </g>
</svg>
