<?xml version="1.0" encoding="UTF-8" standalone="no"?>
<!-- Created with Inkscape (http://www.inkscape.org/) -->

<svg
   xmlns:dc="http://purl.org/dc/elements/1.1/"
   xmlns:cc="http://creativecommons.org/ns#"
   xmlns:rdf="http://www.w3.org/1999/02/22-rdf-syntax-ns#"
   xmlns:svg="http://www.w3.org/2000/svg"
   xmlns="http://www.w3.org/2000/svg"
   xmlns:sodipodi="http://sodipodi.sourceforge.net/DTD/sodipodi-0.dtd"
   xmlns:inkscape="http://www.inkscape.org/namespaces/inkscape"
   width="884.62402mm"
   height="182.42754mm"
   viewBox="0 0 884.62403 182.42754"
   version="1.1"
   id="svg8"
   sodipodi:docname="rocstarlogo_allsilver.svg"
   inkscape:version="0.92.4 5da689c313, 2019-01-14"
   style="enable-background:new"
   inkscape:export-filename="/home/roelof/work2/Projects/SPP1889/ROCSTAR/Outreach/rocstar-website/resources/images/logowork/rocstarlogo_allsilver.png"
   inkscape:export-xdpi="96"
   inkscape:export-ydpi="96"
   enable-background="new">
  <defs
     id="defs2" />
  <sodipodi:namedview
     id="base"
     pagecolor="#ffffff"
     bordercolor="#666666"
     borderopacity="1.0"
     inkscape:pageopacity="0.0"
     inkscape:pageshadow="2"
     inkscape:zoom="0.24748737"
     inkscape:cx="1834.517"
     inkscape:cy="872.55197"
     inkscape:document-units="mm"
     inkscape:current-layer="flowRoot6395-7"
     showgrid="false"
     inkscape:object-paths="true"
     inkscape:window-width="1920"
     inkscape:window-height="1021"
     inkscape:window-x="0"
     inkscape:window-y="0"
     inkscape:window-maximized="1"
     inkscape:snap-grids="false"
     fit-margin-top="0"
     fit-margin-left="0"
     fit-margin-right="0"
     fit-margin-bottom="0"
     inkscape:snap-global="false"
     showguides="true" />
  <metadata
     id="metadata5">
    <rdf:RDF>
      <cc:Work
         rdf:about="">
        <dc:format>image/svg+xml</dc:format>
        <dc:type
           rdf:resource="http://purl.org/dc/dcmitype/StillImage" />
        <dc:title></dc:title>
      </cc:Work>
    </rdf:RDF>
  </metadata>
  <g
     inkscape:groupmode="layer"
     id="layer2"
     inkscape:label="logo"
     transform="translate(-3.654733,1.9491215)"
     style="display:inline">
    <path
       style="display:inline;fill:none;stroke:#999999;stroke-width:20;stroke-linecap:round;stroke-linejoin:miter;stroke-miterlimit:4;stroke-dasharray:none;stroke-opacity:1;enable-background:new"
       d="m 13.766377,23.322031 c 0,0 16.633995,-13.243076 35.446136,-0.130655 18.812142,13.11242 35.446101,-0.130644 35.446101,-0.130644 v 0"
       id="path4893-3-6-8"
       inkscape:connector-curvature="0"
       inkscape:export-xdpi="96"
       inkscape:export-ydpi="96"
       sodipodi:nodetypes="czcc" />
    <path
       style="display:inline;opacity:1;fill:#999999;fill-opacity:1;stroke:none;stroke-width:29.26753426;stroke-linecap:round;stroke-linejoin:bevel;stroke-miterlimit:4;stroke-dasharray:none;stroke-dashoffset:0;stroke-opacity:1;enable-background:new"
       d="M 120.087,-1.9471679 A 17.242397,17.242397 0 0 0 103.10664,15.537036 V 130.57187 a 27.936859,27.936859 0 0 0 -10.6965,22.04104 27.936859,27.936859 0 0 0 27.96832,27.86548 27.936859,27.936859 0 0 0 27.90527,-27.92905 l -5.2e-4,-0.15916 A 27.936859,27.936859 0 0 0 137.58722,130.59616 V 15.537036 A 17.242397,17.242397 0 0 0 120.087,-1.9471679 Z m 0.14831,9.6231851 a 7.4526613,7.4526613 0 0 1 0.74259,0.025838 7.4526613,7.4526613 0 0 1 0.73794,0.1002522 7.4526613,7.4526613 0 0 1 0.7245,0.1731161 7.4526613,7.4526613 0 0 1 0.70384,0.2449462 7.4526613,7.4526613 0 0 1 0.67541,0.313676 7.4526613,7.4526613 0 0 1 0.64079,0.3798218 7.4526613,7.4526613 0 0 1 0.59996,0.4418335 7.4526613,7.4526613 0 0 1 0.55242,0.4991944 7.4526613,7.4526613 0 0 1 0.50023,0.5524206 7.4526613,7.4526613 0 0 1 0.44235,0.599447 7.4526613,7.4526613 0 0 1 0.38034,0.640271 7.4526613,7.4526613 0 0 1 0.31471,0.675411 7.4526613,7.4526613 0 0 1 0.24546,0.703316 7.4526613,7.4526613 0 0 1 0.17415,0.724504 7.4526613,7.4526613 0 0 1 0.10129,0.737939 7.4526613,7.4526613 0 0 1 0.0269,0.744658 v 65.908121 a 7.4526613,7.4526613 0 0 1 -0.0129,0.607714 7.4526613,7.4526613 0 0 1 -0.0827,0.740523 7.4526613,7.4526613 0 0 1 -0.15658,0.728121 7.4526613,7.4526613 0 0 1 -0.22841,0.709001 7.4526613,7.4526613 0 0 1 -0.29818,0.682646 7.4526613,7.4526613 0 0 1 -0.36483,0.649573 7.4526613,7.4526613 0 0 1 -0.42737,0.610299 7.4526613,7.4526613 0 0 1 -0.48679,0.56379 7.4526613,7.4526613 0 0 1 -0.54002,0.513146 7.4526613,7.4526613 0 0 1 -0.58911,0.456303 7.4526613,7.4526613 0 0 1 -0.63148,0.394809 7.4526613,7.4526613 0 0 1 -0.66766,0.33021 7.4526613,7.4526613 0 0 1 -0.69764,0.262001 7.4526613,7.4526613 0 0 1 -0.71985,0.191204 7.4526613,7.4526613 0 0 1 -0.73587,0.117822 7.4526613,7.4526613 0 0 1 -0.74363,0.04392 7.4526613,7.4526613 0 0 1 -0.74414,-0.02997 7.4526613,7.4526613 0 0 1 -0.73742,-0.104902 7.4526613,7.4526613 0 0 1 -0.72347,-0.177768 7.4526613,7.4526613 0 0 1 -0.70228,-0.248563 7.4526613,7.4526613 0 0 1 -0.67386,-0.31781 7.4526613,7.4526613 0 0 1 -0.63872,-0.383955 7.4526613,7.4526613 0 0 1 -0.59686,-0.444934 7.4526613,7.4526613 0 0 1 -0.54984,-0.502811 7.4526613,7.4526613 0 0 1 -0.49661,-0.555522 7.4526613,7.4526613 0 0 1 -0.43925,-0.601515 7.4526613,7.4526613 0 0 1 -0.37621,-0.642855 7.4526613,7.4526613 0 0 1 -0.31057,-0.677479 7.4526613,7.4526613 0 0 1 -0.24133,-0.70435 7.4526613,7.4526613 0 0 1 -0.17002,-0.725535 7.4526613,7.4526613 0 0 1 -0.0966,-0.738457 7.4526613,7.4526613 0 0 1 -0.0222,-0.744657 v -65.90812 a 7.4526613,7.4526613 0 0 1 0.0109,-0.520382 7.4526613,7.4526613 0 0 1 0.0785,-0.74104 7.4526613,7.4526613 0 0 1 0.15193,-0.729154 7.4526613,7.4526613 0 0 1 0.22427,-0.710035 7.4526613,7.4526613 0 0 1 0.29404,-0.684712 7.4526613,7.4526613 0 0 1 0.36122,-0.65164 7.4526613,7.4526613 0 0 1 0.42426,-0.612366 7.4526613,7.4526613 0 0 1 0.48318,-0.56689 7.4526613,7.4526613 0 0 1 0.53743,-0.5162478 7.4526613,7.4526613 0 0 1 0.58601,-0.4594035 7.4526613,7.4526613 0 0 1 0.62891,-0.3989421 7.4526613,7.4526613 0 0 1 0.6661,-0.3343463 7.4526613,7.4526613 0 0 1 0.69557,-0.2656171 7.4526613,7.4526613 0 0 1 0.71934,-0.1953368 7.4526613,7.4526613 0 0 1 0.73483,-0.1224733 7.4526613,7.4526613 0 0 1 0.74311,-0.048059 z"
       id="path1409"
       inkscape:connector-curvature="0" />
    <path
       style="display:inline;fill:none;stroke:#999999;stroke-width:20;stroke-linecap:round;stroke-linejoin:miter;stroke-miterlimit:4;stroke-dasharray:none;stroke-opacity:1;enable-background:new"
       d="m 13.766375,124.24866 c 0,0 16.633995,-13.24308 35.446137,-0.13065 18.812142,13.11242 35.446102,-0.13065 35.446102,-0.13065 v 0"
       id="path4893-3-6-8-9"
       inkscape:connector-curvature="0"
       inkscape:export-xdpi="96"
       inkscape:export-ydpi="96"
       sodipodi:nodetypes="czcc" />
    <path
       style="display:inline;fill:none;stroke:#999999;stroke-width:20;stroke-linecap:round;stroke-linejoin:miter;stroke-miterlimit:4;stroke-dasharray:none;stroke-opacity:1;enable-background:new"
       d="m 13.766375,73.78534 c 0,0 16.633995,-13.243083 35.446137,-0.13065 18.812142,13.11242 35.446102,-0.13065 35.446102,-0.13065 v 0"
       id="path4893-3-6-8-9-1"
       inkscape:connector-curvature="0"
       inkscape:export-xdpi="96"
       inkscape:export-ydpi="96"
       sodipodi:nodetypes="czcc" />
    <path
       style="font-style:normal;font-variant:normal;font-weight:600;font-stretch:normal;font-size:666.66668701px;line-height:1.25;font-family:'Noto Sans';-inkscape-font-specification:'Noto Sans Semi-Bold';letter-spacing:0px;word-spacing:0px;display:inline;fill:#999999;fill-opacity:1;stroke:none;stroke-width:0.26458332;enable-background:new"
       d="m 148.12158,13.887077 v 18.873261 h 2.97242 c 9.28982,0 16.11036,1.47026 20.46129,4.41007 4.46851,2.82223 6.70295,7.643339 6.70295,14.46371 0,6.585191 -2.05804,11.582699 -6.17378,14.992879 -4.11575,3.292602 -10.87715,4.939231 -20.28456,4.939231 h -3.67832 V 90.08707 h 9.49916 l 30.1625,49.74166 h 25.4 L 177.02317,84.442449 c 4.11574,-1.76389 7.9963,-4.056941 11.64167,-6.879162 3.76296,-2.939809 6.76157,-6.585349 8.99583,-10.93629 2.35185,-4.350919 3.52795,-9.58347 3.52795,-15.69825 0,-12.464839 -3.99832,-21.754809 -11.99461,-27.86963 -7.8787,-6.11483 -20.10816,-9.17204 -36.68872,-9.17204 z"
       id="path979"
       inkscape:connector-curvature="0" />
    <flowRoot
       transform="translate(185.25062,-691.40021)"
       xml:space="preserve"
       id="flowRoot6458"
       style="font-style:normal;font-weight:normal;font-size:40px;line-height:1.25;font-family:sans-serif;letter-spacing:0px;word-spacing:0px;display:inline;fill:#000000;fill-opacity:1;stroke:none;enable-background:new"><flowRegion
         id="flowRegion6460"><rect
           id="rect6462"
           width="1119.249"
           height="1460.6805"
           x="-1646.5487"
           y="1280.1035" /></flowRegion><flowPara
         id="flowPara6464" /></flowRoot>    <g
       aria-label="OCSTAR"
       transform="matrix(0.26458333,0,0,0.26458333,313.98276,-503.12327)"
       style="font-style:normal;font-weight:normal;font-size:666.66668701px;line-height:1.25;font-family:sans-serif;letter-spacing:0px;word-spacing:0px;display:inline;fill:#999999;fill-opacity:1;stroke:none;enable-background:new"
       id="flowRoot6395-7">
      <path
         d="m 100.57228,2184.7215 q 0,74 -24.666667,129.3333 -24.000001,54.6667 -74.000002,85.3334 -50.000002,30.6666 -128.000001,30.6666 -77.33334,0 -128.00001,-30.6666 -50,-30.6667 -74.66667,-86 -24,-55.3334 -24,-129.3334 0,-74 24,-128.6666 24.66667,-54.6667 74.66667,-84.6667 50.66667,-30.6667 128.66667,-30.6667 77.333339,0 127.333341,30.6667 50.000001,30 74.000002,85.3333 24.666667,54.6667 24.666667,128.6667 z m -347.33334,0 q 0,74.6667 28.66666,118 28.66667,42.6667 92.00001,42.6667 64.666666,0 92.666667,-42.6667 28.0000004,-43.3333 28.0000004,-118 0,-75.3333 -28.0000004,-118 -28.000001,-42.6667 -92.000007,-42.6667 -64,0 -92.66667,42.6667 -28.66666,42.6667 -28.66666,118 z"
         style="font-style:normal;font-variant:normal;font-weight:600;font-stretch:normal;font-size:666.66668701px;font-family:'Noto Sans';-inkscape-font-specification:'Noto Sans Semi-Bold';fill:#999999;fill-opacity:1"
         id="path943" />
      <path
         d="m 401.23866,2024.7215 q -58.00001,0 -88.66667,43.3333 -30.66667,43.3334 -30.66667,118.6667 0,76 28,118 28.66667,41.3333 91.33334,41.3333 29.33333,0 58,-6.6666 29.33333,-6.6667 63.33333,-18.6667 v 84.6667 q -31.33333,12.6666 -62,18.6666 -30.66667,6 -68.66667,6 -73.33333,0 -121.33334,-30 -47.33333,-30.6666 -70,-85.3333 -22.66666,-55.3333 -22.66666,-128.6667 0,-72 26,-127.3333 26,-55.3334 75.33333,-86.6667 50,-31.3333 122.00001,-31.3333 35.33333,0 70.66666,9.3333 36.00001,8.6667 68.66667,24 l -32.66666,82 q -26.66667,-12.6666 -54.00001,-22 -26.66666,-9.3333 -52.66666,-9.3333 z"
         style="font-style:normal;font-variant:normal;font-weight:600;font-stretch:normal;font-size:666.66668701px;font-family:'Noto Sans';-inkscape-font-specification:'Noto Sans Semi-Bold';fill:#999999;fill-opacity:1"
         id="path945" />
      <path
         d="m 904.57146,2291.3882 q 0,63.3333 -46,101.3333 -45.33333,37.3333 -129.33334,37.3333 -75.33333,0 -134.66667,-28.6666 v -94 q 34,14.6666 70,27.3333 36.66667,12 72.66667,12 37.33334,0 52.66667,-14 16,-14.6667 16,-36.6667 0,-18 -12.66666,-30.6666 -12,-12.6667 -32.66667,-23.3334 -20.66667,-11.3333 -47.33334,-24 -16.66666,-8 -36,-18.6666 -19.33333,-11.3334 -37.33333,-27.3334 -17.33334,-16.6666 -28.66667,-40 -11.33333,-23.3333 -11.33333,-56 0,-64 43.33333,-99.3333 43.33334,-36 118,-36 37.33334,0 70.66667,8.6666 34,8.6667 70.66667,24.6667 l -32.66667,78.6667 q -32.66666,-13.3334 -58.66666,-20.6667 -26,-7.3333 -53.33334,-7.3333 -28.66667,0 -44,13.3333 -15.33333,13.3334 -15.33333,34.6667 0,25.3333 22.66666,40 22.66667,14.6667 67.33334,36 36.66667,17.3333 62,36 26,18.6667 40,44 14,25.3333 14,62.6667 z"
         style="font-style:normal;font-variant:normal;font-weight:600;font-stretch:normal;font-size:666.66668701px;font-family:'Noto Sans';-inkscape-font-specification:'Noto Sans Semi-Bold';fill:#999999;fill-opacity:1"
         id="path947" />
      <path
         d="M 1174.5705,2423.3882 H 1073.9039 V 2031.3881 H 944.57052 v -84 h 359.33338 v 84 h -129.3334 z"
         style="font-style:normal;font-variant:normal;font-weight:600;font-stretch:normal;font-size:666.66668701px;font-family:'Noto Sans';-inkscape-font-specification:'Noto Sans Semi-Bold';fill:#999999;fill-opacity:1"
         id="path949" />
      <path
         d="m 1621.9019,2423.3882 -34.6666,-113.3334 h -173.3334 l -34.6666,113.3334 h -108.6667 l 168,-478.0001 h 123.3333 l 168.6667,478.0001 z m -58.6666,-198 -34.6667,-110.6667 q -3.3333,-11.3333 -8.6667,-28.6667 -5.3333,-17.3333 -10.6666,-35.3333 -5.3334,-18 -8.6667,-31.3334 -3.3333,13.3334 -9.3333,33.3334 -5.3334,19.3333 -10.6667,37.3333 -4.6667,17.3334 -7.3333,24.6667 l -34,110.6667 z"
         style="font-style:normal;font-variant:normal;font-weight:600;font-stretch:normal;font-size:666.66668701px;font-family:'Noto Sans';-inkscape-font-specification:'Noto Sans Semi-Bold';fill:#999999;fill-opacity:1"
         id="path951" />
      <path
         d="m 1929.2343,1947.3881 q 97.3333,0 143.3333,35.3334 46.6667,35.3333 46.6667,107.3333 0,32.6667 -12.6667,57.3334 -12,24 -32.6666,41.3333 -20,16.6667 -43.3334,27.3333 l 140,207.3334 h -112 l -113.3333,-182.6667 h -54 v 182.6667 h -100.6667 v -476.0001 z m -7.3333,82.6667 h -30.6667 v 128.6667 h 32.6667 q 50,0 71.3333,-16.6667 22,-16.6666 22,-49.3333 0,-34 -23.3333,-48 -22.6667,-14.6667 -72,-14.6667 z"
         style="font-style:normal;font-variant:normal;font-weight:600;font-stretch:normal;font-size:666.66668701px;font-family:'Noto Sans';-inkscape-font-specification:'Noto Sans Semi-Bold';fill:#999999;fill-opacity:1"
         id="path953" />
    </g>
  </g>
</svg>
