<svg {{ with .size }} height="{{ . }}" {{ end }} style="enable-background:new 0 0 524 781;" version="1.1" viewBox="0 0 977.31023 655.36394" width="{{ .size }}" xml:space="preserve" xmlns="http://www.w3.org/2000/svg" xmlns:xlink="http://www.w3.org/1999/xlink" >
  <g
     transform="translate(98.78612,-38.394113)"
     id="layer1">
    <path
       id="path3347"
       d="m -40.607509,677.11807 c -13.694208,-9.152 -32.386611,-27.8444 -41.538611,-41.53861 l -16.64,-24.89866 V 393.4052 c 0,-238.31741 0.19712,-239.96416 30.218394,-252.39936 9.796249,-4.05775 19.957811,-4.78105 28.113817,-2.00115 7.024896,2.39437 94.981223,70.96361 195.458459,152.37617 100.47729,81.4125 191.03872,151.00738 201.24764,154.65523 26.09889,9.32572 51.03145,8.4288 74.88169,-2.69379 11.264,-5.25296 99.21587,-74.14702 195.44852,-153.09788 96.23271,-78.95091 179.60126,-146.02639 185.26342,-149.05671 16.85923,-9.02278 30.31034,-6.38162 48.00727,9.42638 l 16.72079,14.93601 1.46504,214.18399 c 1.26843,185.44568 0.37734,217.04007 -6.64254,235.47023 -8.74286,22.95414 -50.04564,65.23023 -71.8145,73.50676 -8.31155,3.16002 -163.20195,5.04699 -414.2827,5.04699 H -15.708846 Z M 359.45388,340.47741 C 346.16067,336.33005 194.84081,216.56353 61.21388,104.42657 19.880018,69.740102 12.373483,57.28647 25.11788,44.542073 c 4.661914,-4.661913 92.81715,-6.144 365.45311,-6.144 389.15164,0 376.00809,-0.956109 369.0304,26.845184 -2.6515,10.564403 -276.17649,241.511223 -315.60085,266.472913 -17.376,11.00175 -62.40814,15.66822 -84.54666,8.76124 z"
       style="opacity:1;fill:#BABABA;fill-opacity:1;stroke:none;stroke-width:5.11999989" />
  </g>
</svg>
