<svg version="1.1" viewBox="0 0 206.10563 206.10563" xmlns="http://www.w3.org/2000/svg">
  <g transform="translate(-5.7714 49.44)">
  <path class="class1" d="m32.943-18.925c-13.588 0.79739-23.105 6.4805-23.105 6.4805a8.2508 8.2508 0 1 0 8.6289 14.062s15.582-9.964 34.346 0.11523c26.415 14.19 50.781-0.35742 50.781-0.35742a8.2508 8.2508 0 1 0 -8.6289 -14.062s-15.58 9.964-34.344-0.11523c-9.9058-5.3211-19.525-6.6015-27.678-6.123z" />
  <path class="class1" d="m147.23 119.44a19.243 19.243 0 0 1 -19.222 19.238 19.243 19.243 0 0 1 -19.265 -19.194 19.243 19.243 0 0 1 19.167 -19.293 19.243 19.243 0 0 1 19.32 19.139" />
  <path class="class1" d="m32.943 86.215c-13.588 0.79739-23.105 6.4805-23.105 6.4805a8.2508 8.2508 0 1 0 8.6289 14.063s15.582-9.964 34.346 0.11523c26.415 14.19 50.781-0.35742 50.781-0.35742a8.2508 8.2508 0 1 0 -8.6289 -14.063s-15.58 9.964-34.344-0.11524c-9.9058-5.3211-19.525-6.6015-27.678-6.123z" />
  <path class="class1" d="m33.966 33.645c-13.588 0.79739-23.105 6.4805-23.105 6.4805a8.2508 8.2508 0 1 0 8.6289 14.063s15.582-9.964 34.346 0.11523c26.415 14.19 50.781-0.35742 50.781-0.35742a8.2508 8.2508 0 1 0 -8.6289 -14.063s-15.582 9.964-34.346-0.11523c-9.9058-5.3211-19.523-6.6015-27.676-6.123z" />
  <path class="class1" d="m127.74-28.725a10.001 8.9299 0 0 0 -9.8361 9.0651l0.17571 120.56a10.001 8.9299 0 1 0 20 -0.0245l-0.17622-120.56a10.001 8.9299 0 0 0 -10.164 -9.0424zm-0.84129 3.3499h2.1849c0.41174 0 0.81323 0.0444 1.201 0.12873 0.38774 0.0843 0.76186 0.20887 1.1178 0.36914 0.35589 0.16027 0.69355 0.35633 1.0098 0.58416 0.31621 0.22782 0.61087 0.48727 0.87952 0.77425 0.26868 0.28699 0.51176 0.60169 0.72503 0.93946s0.3967 0.69863 0.54674 1.0788c0.15003 0.38017 0.26626 0.7795 0.3452 1.1937 0.0789 0.41419 0.12041 0.84339 0.12041 1.2832v69.31c0 0.43981-0.0415 0.86857-0.12041 1.2827-0.0789 0.41418-0.19517 0.81352-0.3452 1.1937-0.15004 0.38018-0.33347 0.7415-0.54674 1.0793-0.21327 0.33778-0.45635 0.65201-0.72503 0.939-0.26865 0.28699-0.56331 0.54644-0.87952 0.77426-0.31621 0.22781-0.65387 0.42435-1.0098 0.58461-0.3559 0.16028-0.73002 0.28435-1.1178 0.36867-0.38774 0.0843-0.78923 0.12874-1.201 0.12874h-2.1849c-0.41174 0-0.81374-0.0444-1.2015-0.12874-0.38773-0.0843-0.76133-0.20839-1.1172-0.36867-0.35589-0.16026-0.69406-0.3568-1.0103-0.58461-0.31621-0.22782-0.61036-0.48727-0.87902-0.77426-0.26868-0.28699-0.51175-0.60122-0.72502-0.939-0.21328-0.33776-0.39671-0.69908-0.54674-1.0793-0.15003-0.38017-0.26678-0.77951-0.34571-1.1937-0.0789-0.41418-0.12042-0.84294-0.12042-1.2827v-69.31c0-0.43982 0.0415-0.86902 0.12042-1.2832 0.0789-0.41419 0.19568-0.81352 0.34571-1.1937s0.33346-0.74103 0.54674-1.0788c0.21327-0.33777 0.45634-0.65247 0.72502-0.93946 0.26866-0.28698 0.56281-0.54643 0.87902-0.77425 0.3162-0.22783 0.65437-0.42389 1.0103-0.58416 0.35591-0.16027 0.72951-0.28481 1.1172-0.36914 0.38775-0.0843 0.78975-0.12873 1.2015-0.12873z" />
  <path class="class1" d="m145.02-14.839v13.758h10.769c10.348 0 17.992 1.7639 22.93 5.2917 4.9389 3.4102 7.4083 9.231 7.4083 17.463 0 7.8787-2.3517 13.876-7.0554 17.992-4.7037 3.9981-12.171 5.997-22.402 5.997h-11.651v13.405h17.825l30.515 52.035h18.521l-34.573-56.445c4.2333-1.4111 8.2317-3.4692 11.995-6.1738 3.8806-2.7046 7.0556-6.291 9.525-10.76 2.4694-4.4685 3.7042-10.054 3.7042-16.757 0-11.994-3.7628-20.931-11.289-26.811-7.4083-5.9972-18.933-8.9958-34.573-8.9958z" />
 </g>
</svg>
